<svg xmlns="http://www.w3.org/2000/svg" viewBox="0 0 200 64" fill="none">
  <g fill="#E2E8F0">
    <path d="M 8 30 L 18 6 L 28 30 L 24 30 L 22 24 L 14 24 L 12 30 Z M 15.5 20 L 18 12 L 20.5 20 Z"/>
    <path d="M 32 6 L 32 30 L 46 30 L 46 26 L 36 26 L 36 6 Z"/>
    <path d="M 50 6 L 50 30 L 54 30 L 54 20 L 60 20 Q 66 20 66 13 Q 66 6 60 6 Z M 54 10 L 59 10 Q 62 10 62 13 Q 62 16 59 16 L 54 16 Z"/>
    <path d="M 70 6 L 70 30 L 74 30 L 74 20 L 84 20 L 84 30 L 88 30 L 88 6 L 84 6 L 84 16 L 74 16 L 74 6 Z"/>
    <path d="M 92 30 L 102 6 L 112 30 L 108 30 L 106 24 L 98 24 L 96 30 Z M 99.5 20 L 102 12 L 104.5 20 Z"/>
  </g>
  <g fill="#94A3B8">
    <path d="M 8 36 L 18 58 L 28 36 L 25 36 L 18 54 L 11 36 Z"/>
    <path d="M 32 36 L 32 58 L 46 58 L 46 56 L 34 56 L 34 48 L 44 48 L 44 46 L 34 46 L 34 38 L 46 38 L 46 36 Z"/>
    <path d="M 58 36 Q 50 36 50 47 Q 50 58 58 58 Q 64 58 66 53 L 64 52 Q 62 56 58 56 Q 52 56 52 47 Q 52 38 58 38 Q 62 38 64 42 L 66 41 Q 64 36 58 36 Z"/>
    <path d="M 68 36 L 68 38 L 76 38 L 76 58 L 78 58 L 78 38 L 86 38 L 86 36 Z"/>
    <path d="M 96 36 Q 88 36 88 47 Q 88 58 96 58 Q 104 58 104 47 Q 104 36 96 36 Z M 96 38 Q 102 38 102 47 Q 102 56 96 56 Q 90 56 90 47 Q 90 38 96 38 Z"/>
    <path d="M 108 36 L 108 58 L 110 58 L 110 48 L 116 48 L 122 58 L 125 58 L 119 48 Q 124 47 124 42 Q 124 36 118 36 Z M 110 38 L 117 38 Q 122 38 122 42 Q 122 46 117 46 L 110 46 Z"/>
  </g>
</svg>
