<svg xmlns="http://www.w3.org/2000/svg" viewBox="0 0 64 64" fill="none">
  <defs>
    <linearGradient id="gbhd" x1="0.5" y1="0" x2="0.5" y2="1">
      <stop offset="0%" stop-color="#38BDF8"/>
      <stop offset="100%" stop-color="#3B82F6"/>
    </linearGradient>
  </defs>
  <path d="M 32 4 L 56 18 L 56 46 L 32 60 L 8 46 L 8 18 Z" fill="url(#gbhd)"/>
  <path fill-rule="evenodd" d="
    M 30 20 C 23 20 18 26 18 32 C 18 38 23 44 30 44 C 34 44 37 42 39 39 L 39 44 L 44 44 L 44 20 L 39 20 L 39 25 C 37 22 34 20 30 20 Z
    M 30 25 C 25 25 23 28 23 32 C 23 36 25 39 30 39 C 34 39 36 36 36 32 C 36 28 34 25 30 25 Z
  " fill="#0F172A"/>
</svg>
