<svg xmlns="http://www.w3.org/2000/svg" viewBox="0 0 64 64" fill="none">
  <rect x="12" y="12" width="40" height="40" rx="4" fill="#1E293B" stroke="#7DD3FC" stroke-width="1.5"/>
  <g fill="#7DD3FC">
    <rect x="8" y="18" width="4" height="2"/>
    <rect x="8" y="24" width="4" height="2"/>
    <rect x="8" y="30" width="4" height="2"/>
    <rect x="8" y="36" width="4" height="2"/>
    <rect x="8" y="42" width="4" height="2"/>
    <rect x="52" y="18" width="4" height="2"/>
    <rect x="52" y="24" width="4" height="2"/>
    <rect x="52" y="30" width="4" height="2"/>
    <rect x="52" y="36" width="4" height="2"/>
    <rect x="52" y="42" width="4" height="2"/>
    <rect x="18" y="8" width="2" height="4"/>
    <rect x="24" y="8" width="2" height="4"/>
    <rect x="30" y="8" width="2" height="4"/>
    <rect x="36" y="8" width="2" height="4"/>
    <rect x="42" y="8" width="2" height="4"/>
    <rect x="18" y="52" width="2" height="4"/>
    <rect x="24" y="52" width="2" height="4"/>
    <rect x="30" y="52" width="2" height="4"/>
    <rect x="36" y="52" width="2" height="4"/>
    <rect x="42" y="52" width="2" height="4"/>
  </g>
  <path fill-rule="evenodd" d="
    M 32 18 L 22 44 L 26 44 L 28 38 L 36 38 L 38 44 L 42 44 Z
    M 29 34 L 32 25 L 35 34 Z
  " fill="#7DD3FC"/>
  <circle cx="18" cy="18" r="1.5" fill="#F472B6"/>
</svg>
