<svg xmlns="http://www.w3.org/2000/svg" viewBox="0 0 64 64" fill="none">
  <rect width="64" height="64" fill="#34D399" rx="6"/>
  <rect x="2" y="2" width="60" height="60" fill="#052E1A" rx="5"/>
  <g font-family="monospace" font-size="4" fill="#10B981">
    <text x="6" y="14">1</text><text x="6" y="22">0</text><text x="6" y="30">1</text><text x="6" y="38">1</text><text x="6" y="46">0</text><text x="6" y="54">1</text>
    <text x="54" y="12">0</text><text x="54" y="20">1</text><text x="54" y="28">0</text><text x="54" y="36">1</text><text x="54" y="44">0</text><text x="54" y="52">0</text>
    <text x="14" y="58">1</text><text x="48" y="58">0</text>
  </g>
  <path fill-rule="evenodd" d="
    M 32 10 L 14 54 L 22 54 L 26 44 L 38 44 L 42 54 L 50 54 Z
    M 28 38 L 32 24 L 36 38 Z
  " fill="#6EE7B7"/>
  <path d="M 32 10 L 14 54 L 22 54 L 26 44 L 38 44 L 42 54 L 50 54 Z" stroke="#A7F3D0" stroke-width="0.5" fill="none" opacity="0.9"/>
  <rect x="31" y="7" width="2" height="4" fill="#A7F3D0"/>
</svg>
