<svg xmlns="http://www.w3.org/2000/svg" viewBox="0 0 64 64" fill="none">
  <defs>
    <linearGradient id="gacd" x1="0" y1="0" x2="1" y2="1">
      <stop offset="0%" stop-color="#38BDF8"/>
      <stop offset="100%" stop-color="#3B82F6"/>
    </linearGradient>
  </defs>
  <circle cx="32" cy="32" r="30" fill="url(#gacd)"/>
  <path fill-rule="evenodd" d="
    M 30 10 C 18 10 10 20 10 32 C 10 44 18 54 30 54 C 36 54 41 51 44 46 L 44 54 L 52 54 L 52 10 L 44 10 L 44 18 C 41 13 36 10 30 10 Z
    M 30 20 C 23 20 18 25 18 32 C 18 39 23 44 30 44 C 37 44 42 39 42 32 C 42 25 37 20 30 20 Z
  " fill="#0F172A"/>
</svg>
