<svg xmlns="http://www.w3.org/2000/svg" viewBox="0 0 64 64" fill="none">
  <!-- Sacred geometry / mandala AV -->
  <defs>
    <linearGradient id="gmnd" x1="0" y1="0" x2="1" y2="1">
      <stop offset="0%" stop-color="#8B5CF6"/>
      <stop offset="100%" stop-color="#EC4899"/>
    </linearGradient>
  </defs>
  <circle cx="32" cy="32" r="30" stroke="url(#gmnd)" stroke-width="1" fill="none"/>
  <circle cx="32" cy="32" r="22" stroke="url(#gmnd)" stroke-width="1" fill="none" opacity="0.6"/>
  <!-- 6-fold rotational A -->
  <g stroke="url(#gmnd)" stroke-width="2.5" stroke-linecap="round" fill="none">
    <path d="M 32 10 L 24 32 L 40 32 Z M 28 26 L 36 26"/>
    <path d="M 32 10 L 24 32 L 40 32 Z M 28 26 L 36 26" transform="rotate(60 32 32)"/>
    <path d="M 32 10 L 24 32 L 40 32 Z M 28 26 L 36 26" transform="rotate(120 32 32)"/>
    <path d="M 32 10 L 24 32 L 40 32 Z M 28 26 L 36 26" transform="rotate(180 32 32)"/>
    <path d="M 32 10 L 24 32 L 40 32 Z M 28 26 L 36 26" transform="rotate(240 32 32)"/>
    <path d="M 32 10 L 24 32 L 40 32 Z M 28 26 L 36 26" transform="rotate(300 32 32)"/>
  </g>
  <circle cx="32" cy="32" r="4" fill="url(#gmnd)"/>
</svg>
