<svg xmlns="http://www.w3.org/2000/svg" viewBox="0 0 64 64" fill="none">
  <!-- Camera aperture / iris — A-shape in center -->
  <defs>
    <linearGradient id="gap" x1="0" y1="0" x2="1" y2="1">
      <stop offset="0%" stop-color="#0EA5E9"/>
      <stop offset="100%" stop-color="#1E3A8A"/>
    </linearGradient>
  </defs>
  <circle cx="32" cy="32" r="28" fill="#0F172A"/>
  <!-- Aperture blades -->
  <g fill="url(#gap)">
    <path d="M 32 32 L 32 6 L 50 14 Z"/>
    <path d="M 32 32 L 50 14 L 58 32 Z" opacity="0.85"/>
    <path d="M 32 32 L 58 32 L 50 50 Z" opacity="0.7"/>
    <path d="M 32 32 L 50 50 L 32 58 Z" opacity="0.85"/>
    <path d="M 32 32 L 32 58 L 14 50 Z"/>
    <path d="M 32 32 L 14 50 L 6 32 Z" opacity="0.85"/>
    <path d="M 32 32 L 6 32 L 14 14 Z" opacity="0.7"/>
    <path d="M 32 32 L 14 14 L 32 6 Z" opacity="0.85"/>
  </g>
  <!-- Center hole showing A -->
  <circle cx="32" cy="32" r="10" fill="#0F172A"/>
  <path fill-rule="evenodd" d="
    M 32 24 L 24 40 L 26.5 40 L 28 36.5 L 36 36.5 L 37.5 40 L 40 40 Z
    M 29 34 L 32 28 L 35 34 Z
  " fill="#38BDF8"/>
</svg>
