<svg xmlns="http://www.w3.org/2000/svg" viewBox="0 0 64 64" fill="none">
  <!-- Top-left facet -->
  <path d="M 32 2 L 6 28 L 32 22 Z" fill="#38BDF8"/>
  <!-- Top-right facet (lighter) -->
  <path d="M 32 2 L 58 28 L 32 22 Z" fill="#7DD3FC"/>
  <!-- Bottom-left of A -->
  <path d="M 6 28 L 12 38 L 32 38 L 32 22 Z" fill="#0EA5E9"/>
  <!-- Bottom-right of A -->
  <path d="M 58 28 L 52 38 L 32 38 L 32 22 Z" fill="#38BDF8"/>

  <!-- A crossbar cutout -->
  <path d="M 24 30 L 32 16 L 40 30 Z" fill="#0F172A" opacity="0.15"/>

  <!-- Divider -->
  <line x1="12" y1="39.5" x2="52" y2="39.5" stroke="#0F172A" stroke-width="2"/>

  <!-- Bottom-left facet -->
  <path d="M 12 41 L 32 41 L 32 62 Z" fill="#3B82F6"/>
  <!-- Bottom-right facet -->
  <path d="M 52 41 L 32 41 L 32 62 Z" fill="#60A5FA"/>

  <line x1="32" y1="2" x2="32" y2="22" stroke="white" stroke-width="0.75" opacity="0.3"/>
  <line x1="32" y1="41" x2="32" y2="62" stroke="white" stroke-width="0.75" opacity="0.1"/>
  <path d="M 32 2 L 58 28" stroke="white" stroke-width="0.5" opacity="0.2"/>
</svg>
