<svg xmlns="http://www.w3.org/2000/svg" viewBox="0 0 64 64" fill="none">
  <defs>
    <linearGradient id="gafd" x1="0" y1="0.3" x2="1" y2="0.7">
      <stop offset="0%" stop-color="#3B82F6"/>
      <stop offset="100%" stop-color="#38BDF8"/>
    </linearGradient>
  </defs>
  <path d="M 52 32 C 52 18 42 10 32 10 C 20 10 12 20 12 32 C 12 44 20 54 32 54 C 40 54 46 48 48 42 L 48 54 L 56 54 L 56 32 C 56 16 46 6 32 6 C 16 6 6 18 6 32 C 6 46 16 58 32 58 C 44 58 52 50 56 40" stroke="url(#gafd)" stroke-width="5" stroke-linecap="round" fill="none"/>
  <path d="M 52 40 L 58 38 L 54 44" stroke="#38BDF8" stroke-width="4" stroke-linecap="round" stroke-linejoin="round" fill="none"/>
</svg>
