<svg xmlns="http://www.w3.org/2000/svg" viewBox="0 0 520 80" fill="none">
  <!-- Type specimen — all 10 custom letters + the Vector Bullet -->
  <!-- Shows the 23° Vector Cut signature across A L P H A V E C T O R -->
  <g fill="#0B0D12">
    <!-- A -->
    <path d="M 18 22 L 24 20 L 38 64 L 32 66 L 29 56 L 13 56 L 10 66 L 4 64 Z M 15 50 L 21 34 L 27 50 Z" fill-rule="evenodd"/>
    <!-- L -->
    <path d="M 46 22 L 52 20 L 52 58 L 66 58 L 66 64 L 46 64 Z"/>
    <!-- P -->
    <path d="M 74 22 L 80 20 L 80 66 L 74 66 Z M 80 20 L 92 20 Q 104 20 104 34 Q 104 48 92 48 L 80 48 L 80 42 L 92 42 Q 98 42 98 34 Q 98 26 92 26 L 80 26 Z" fill-rule="evenodd"/>
    <!-- H -->
    <path d="M 114 22 L 120 20 L 120 40 L 140 40 L 140 22 L 146 20 L 146 64 L 140 66 L 140 46 L 120 46 L 120 64 L 114 66 Z"/>
    <!-- A -->
    <path d="M 168 22 L 174 20 L 188 64 L 182 66 L 179 56 L 163 56 L 160 66 L 154 64 Z M 165 50 L 171 34 L 177 50 Z" fill-rule="evenodd"/>
    <!-- V -->
    <path d="M 202 22 L 208 20 L 220 56 L 232 20 L 238 22 L 224 66 L 216 66 Z"/>
    <!-- E -->
    <path d="M 246 22 L 252 20 L 252 64 L 276 64 L 276 58 L 258 58 L 258 46 L 272 46 L 272 40 L 258 40 L 258 26 L 276 26 L 276 20 L 246 20 Z" fill-rule="evenodd"/>
    <!-- C -->
    <path d="M 306 20 Q 284 20 284 43 Q 284 66 306 66 Q 316 66 320 58 L 314 55 Q 312 60 306 60 Q 290 60 290 43 Q 290 26 306 26 Q 312 26 314 31 L 320 28 Q 316 20 306 20 Z"/>
    <!-- T -->
    <path d="M 326 22 L 358 20 L 358 26 L 346 26 L 346 64 L 340 66 L 340 26 L 326 26 Z"/>
    <!-- O — octagonal -->
    <path fill-rule="evenodd" d="M 370 28 L 378 20 L 394 20 L 402 28 L 402 56 L 394 64 L 378 64 L 370 56 Z M 376 32 L 376 52 L 380 58 L 392 58 L 396 52 L 396 32 L 392 26 L 380 26 Z"/>
    <!-- R -->
    <path d="M 410 22 L 416 20 L 416 66 L 410 66 Z M 416 20 L 428 20 Q 440 20 440 32 Q 440 42 432 44 L 442 64 L 435 66 L 425 46 L 416 46 L 416 40 L 428 40 Q 434 40 434 32 Q 434 26 428 26 L 416 26 Z" fill-rule="evenodd"/>
  </g>
  <!-- Vector Bullet -->
  <path d="M 460 40 L 476 37 L 478 43 L 462 46 Z" fill="#2D5BFF"/>
  <!-- Label (tiny) -->
  <g font-family="'Inter', sans-serif" font-size="7" fill="#6B7380" letter-spacing="0.5">
    <text x="4" y="76">A</text>
    <text x="48" y="76">L</text>
    <text x="76" y="76">P</text>
    <text x="118" y="76">H</text>
    <text x="164" y="76">A</text>
    <text x="208" y="76">V</text>
    <text x="250" y="76">E</text>
    <text x="290" y="76">C</text>
    <text x="336" y="76">T</text>
    <text x="378" y="76">O</text>
    <text x="418" y="76">R</text>
    <text x="452" y="76">·</text>
  </g>
</svg>
