<svg xmlns="http://www.w3.org/2000/svg" viewBox="0 0 64 64" fill="none">
  <!-- Purple container visible on dark bg -->
  <rect width="64" height="64" fill="#7C3AED" rx="8"/>
  <rect x="2" y="2" width="60" height="60" fill="#1E1B4B" rx="7"/>
  <defs>
    <radialGradient id="ggald" cx="0.5" cy="0.5">
      <stop offset="0%" stop-color="#FEF3C7"/>
      <stop offset="20%" stop-color="#C4B5FD"/>
      <stop offset="60%" stop-color="#818CF8"/>
      <stop offset="100%" stop-color="transparent"/>
    </radialGradient>
  </defs>
  <circle cx="32" cy="32" r="26" fill="url(#ggald)" opacity="0.6"/>
  <path d="M 32 32 C 32 18 44 10 52 18 C 56 26 48 34 40 32" stroke="#DDD6FE" stroke-width="1.5" fill="none" opacity="0.9"/>
  <path d="M 32 32 C 32 46 20 54 12 46 C 8 38 16 30 24 32" stroke="#DDD6FE" stroke-width="1.5" fill="none" opacity="0.9"/>
  <circle cx="32" cy="32" r="5" fill="#FEF3C7"/>
  <circle cx="32" cy="32" r="3" fill="white"/>
  <circle cx="8" cy="12" r="0.6" fill="white"/>
  <circle cx="56" cy="10" r="0.6" fill="white"/>
  <circle cx="54" cy="52" r="0.6" fill="white"/>
  <circle cx="10" cy="54" r="0.5" fill="white" opacity="0.7"/>
  <circle cx="48" cy="6" r="0.4" fill="white" opacity="0.9"/>
</svg>
