<svg xmlns="http://www.w3.org/2000/svg" viewBox="0 0 64 64" fill="none">
  <g fill="#A78BFA">
    <rect x="27" y="4" width="6" height="6" rx="1"/>
    <rect x="21" y="10" width="6" height="6" rx="1"/>
    <rect x="33" y="10" width="6" height="6" rx="1"/>
    <rect x="15" y="16" width="6" height="6" rx="1"/>
    <rect x="39" y="16" width="6" height="6" rx="1"/>
    <rect x="9" y="22" width="6" height="6" rx="1"/>
    <rect x="45" y="22" width="6" height="6" rx="1"/>
    <rect x="9" y="28" width="6" height="6" rx="1" fill="#C4B5FD"/>
    <rect x="15" y="28" width="6" height="6" rx="1" fill="#C4B5FD"/>
    <rect x="21" y="28" width="6" height="6" rx="1" fill="#C4B5FD"/>
    <rect x="27" y="28" width="6" height="6" rx="1" fill="#C4B5FD"/>
    <rect x="33" y="28" width="6" height="6" rx="1" fill="#C4B5FD"/>
    <rect x="39" y="28" width="6" height="6" rx="1" fill="#C4B5FD"/>
    <rect x="45" y="28" width="6" height="6" rx="1" fill="#C4B5FD"/>
    <rect x="5" y="34" width="6" height="6" rx="1"/>
    <rect x="49" y="34" width="6" height="6" rx="1"/>
    <rect x="3" y="40" width="6" height="6" rx="1"/>
    <rect x="51" y="40" width="6" height="6" rx="1"/>
    <rect x="1" y="46" width="6" height="6" rx="1"/>
    <rect x="53" y="46" width="6" height="6" rx="1"/>
  </g>
</svg>
