<svg xmlns="http://www.w3.org/2000/svg" viewBox="0 0 64 64" fill="none">
  <g stroke="#38BDF8" stroke-width="1" opacity="0.6">
    <line x1="32" y1="10" x2="20" y2="26"/>
    <line x1="32" y1="10" x2="44" y2="26"/>
    <line x1="32" y1="10" x2="32" y2="32"/>
    <line x1="20" y1="26" x2="12" y2="50"/>
    <line x1="20" y1="26" x2="32" y2="32"/>
    <line x1="44" y1="26" x2="52" y2="50"/>
    <line x1="44" y1="26" x2="32" y2="32"/>
    <line x1="32" y1="32" x2="22" y2="50"/>
    <line x1="32" y1="32" x2="42" y2="50"/>
    <line x1="12" y1="50" x2="22" y2="50"/>
    <line x1="42" y1="50" x2="52" y2="50"/>
    <line x1="22" y1="50" x2="32" y2="44"/>
    <line x1="42" y1="50" x2="32" y2="44"/>
  </g>
  <circle cx="32" cy="10" r="4" fill="#7DD3FC"/>
  <circle cx="32" cy="10" r="2" fill="white"/>
  <circle cx="20" cy="26" r="3" fill="#38BDF8"/>
  <circle cx="32" cy="32" r="3.5" fill="#38BDF8"/>
  <circle cx="44" cy="26" r="3" fill="#38BDF8"/>
  <circle cx="32" cy="44" r="2.5" fill="#38BDF8"/>
  <circle cx="12" cy="50" r="3" fill="#7DD3FC"/>
  <circle cx="22" cy="50" r="2.5" fill="#38BDF8"/>
  <circle cx="42" cy="50" r="2.5" fill="#38BDF8"/>
  <circle cx="52" cy="50" r="3" fill="#7DD3FC"/>
</svg>
