<svg xmlns="http://www.w3.org/2000/svg" viewBox="0 0 64 64" fill="none">
  <!-- Voronoi / crystalline cells forming A -->
  <g stroke="#1E3A8A" stroke-width="0.5" stroke-linejoin="round">
    <path d="M 32 6 L 22 18 L 28 22 Z" fill="#38BDF8"/>
    <path d="M 32 6 L 42 18 L 36 22 Z" fill="#7DD3FC"/>
    <path d="M 22 18 L 28 22 L 18 32 L 10 30 Z" fill="#0EA5E9"/>
    <path d="M 42 18 L 36 22 L 46 32 L 54 30 Z" fill="#38BDF8"/>
    <path d="M 28 22 L 36 22 L 34 36 L 30 36 Z" fill="#1E3A8A"/>
    <path d="M 18 32 L 30 36 L 22 44 L 14 44 L 10 30 Z" fill="#0284C7"/>
    <path d="M 46 32 L 34 36 L 42 44 L 50 44 L 54 30 Z" fill="#0EA5E9"/>
    <path d="M 30 36 L 34 36 L 32 50 Z" fill="#0C4A6E"/>
    <path d="M 22 44 L 14 44 L 8 56 L 26 56 L 32 50 L 22 44 Z" fill="#1E3A8A"/>
    <path d="M 42 44 L 50 44 L 56 56 L 38 56 L 32 50 L 42 44 Z" fill="#0C4A6E"/>
  </g>
  <!-- Accent crystal highlights -->
  <path d="M 32 6 L 28 22 L 22 18 Z" fill="white" opacity="0.25"/>
  <path d="M 18 32 L 22 44 L 10 30 Z" fill="white" opacity="0.15"/>
</svg>
