<svg xmlns="http://www.w3.org/2000/svg" viewBox="0 0 64 64" fill="none">
  <!-- Purple/indigo container visible on dark bg -->
  <rect width="64" height="64" fill="#6366F1" rx="8"/>
  <rect x="2" y="2" width="60" height="60" fill="#312E81" rx="7"/>
  <!-- Background stars -->
  <circle cx="10" cy="10" r="0.6" fill="white" opacity="0.8"/>
  <circle cx="54" cy="8" r="0.6" fill="white" opacity="0.7"/>
  <circle cx="8" cy="32" r="0.4" fill="white" opacity="0.7"/>
  <circle cx="58" cy="20" r="0.5" fill="white" opacity="0.8"/>
  <circle cx="50" cy="56" r="0.6" fill="white" opacity="0.7"/>
  <circle cx="16" cy="52" r="0.4" fill="white" opacity="0.7"/>
  <!-- Connecting lines -->
  <path d="M 10 50 L 18 30 L 24 40 L 32 14 L 40 40 L 46 30 L 54 50" stroke="#A5B4FC" stroke-width="0.9" fill="none" opacity="0.8"/>
  <!-- Stars -->
  <g fill="#A5B4FC">
    <circle cx="10" cy="50" r="1.5"/>
    <circle cx="32" cy="14" r="2.8"/>
    <circle cx="54" cy="50" r="1.5"/>
  </g>
  <g fill="#F0F9FF">
    <circle cx="18" cy="30" r="1.3"/>
    <circle cx="24" cy="40" r="1.1"/>
    <circle cx="40" cy="40" r="1.1"/>
    <circle cx="46" cy="30" r="1.3"/>
  </g>
  <circle cx="32" cy="14" r="6" fill="#A5B4FC" opacity="0.25"/>
  <circle cx="32" cy="14" r="9" fill="#A5B4FC" opacity="0.1"/>
</svg>
