<svg xmlns="http://www.w3.org/2000/svg" viewBox="0 0 64 64" fill="none">
  <!-- Concept: 3D extruded α with shadow depth -->
  <!-- Isometric-ish α that pops off the page -->
  <!-- Shadow/depth layer -->
  <path fill-rule="evenodd" d="
    M 30 6 C 18 6 8 17 8 32 C 8 47 18 58 30 58 C 37 58 42 55 46 50 L 46 58 L 56 58 L 56 6 L 46 6 L 46 14 C 42 9 37 6 30 6 Z
    M 30 18 C 22 18 18 24 18 32 C 18 40 22 46 30 46 C 38 46 42 40 42 32 C 42 24 38 18 30 18 Z
  " fill="#0F172A" transform="translate(2, 2)"/>
  <!-- Front face -->
  <path fill-rule="evenodd" d="
    M 30 6 C 18 6 8 17 8 32 C 8 47 18 58 30 58 C 37 58 42 55 46 50 L 46 58 L 56 58 L 56 6 L 46 6 L 46 14 C 42 9 37 6 30 6 Z
    M 30 18 C 22 18 18 24 18 32 C 18 40 22 46 30 46 C 38 46 42 40 42 32 C 42 24 38 18 30 18 Z
  " fill="#1E3A8A"/>
  <!-- Highlight on top-left edge -->
  <path d="M 30 6 C 18 6 8 17 8 32" stroke="#38BDF8" stroke-width="2" stroke-linecap="round" fill="none" opacity="0.6"/>
</svg>
