<svg xmlns="http://www.w3.org/2000/svg" viewBox="0 0 220 40" fill="none">
  <!-- Clean modern wordmark — no icon, just typography -->
  <!-- Inter-style geometric sans, inline single weight -->
  <g fill="#0F172A">
    <!-- A -->
    <path d="M 4 32 L 14 8 L 24 32 L 20 32 L 18 27 L 10 27 L 8 32 Z M 11.5 23 L 14 16 L 16.5 23 Z"/>
    <!-- l -->
    <path d="M 28 8 L 32 8 L 32 32 L 28 32 Z"/>
    <!-- p -->
    <path d="M 36 14 L 40 14 L 40 16 Q 42 13 46 13 Q 53 13 53 22 Q 53 32 46 32 Q 42 32 40 29 L 40 40 L 36 40 Z M 40 22 Q 40 28 44.5 28 Q 49 28 49 22 Q 49 17 44.5 17 Q 40 17 40 22 Z"/>
    <!-- h -->
    <path d="M 57 8 L 61 8 L 61 16 Q 63 13 67 13 Q 73 13 73 20 L 73 32 L 69 32 L 69 21 Q 69 17 65.5 17 Q 61 17 61 22 L 61 32 L 57 32 Z"/>
    <!-- a -->
    <path d="M 78 20 Q 78 13 86 13 Q 94 13 94 20 L 94 32 L 90 32 L 90 30 Q 88 32 85 32 Q 78 32 78 26 Q 78 21 85 21 L 90 21 L 90 20 Q 90 17 86 17 Q 82 17 82 20 Z M 85 28 Q 90 28 90 24 L 86 24 Q 82 24 82 26 Q 82 28 85 28 Z"/>
  </g>
  <!-- Accent dot -->
  <circle cx="103" cy="32" r="2" fill="#0EA5E9"/>
  <g fill="#64748B">
    <!-- VECTOR — lighter subtitle -->
    <path d="M 115 13 L 121 28 L 127 13 L 125 13 L 121 25 L 117 13 Z"/>
    <path d="M 131 13 L 131 28 L 141 28 L 141 26 L 133 26 L 133 22 L 140 22 L 140 20 L 133 20 L 133 15 L 141 15 L 141 13 Z"/>
    <path d="M 150 13 Q 145 13 145 20 Q 145 28 150 28 Q 154 28 155 25 L 153 24 Q 152 26 150 26 Q 147 26 147 20 Q 147 15 150 15 Q 153 15 153 17 L 155 16 Q 154 13 150 13 Z"/>
    <path d="M 159 13 L 159 15 L 163 15 L 163 28 L 165 28 L 165 15 L 169 15 L 169 13 Z"/>
    <path d="M 177 13 Q 172 13 172 20 Q 172 28 177 28 Q 182 28 182 20 Q 182 13 177 13 Z M 177 15 Q 180 15 180 20 Q 180 26 177 26 Q 174 26 174 20 Q 174 15 177 15 Z"/>
    <path d="M 187 13 L 187 28 L 189 28 L 189 22 L 193 22 L 197 28 L 199 28 L 195 22 Q 198 21 198 17 Q 198 13 194 13 Z M 189 15 L 194 15 Q 196 15 196 17 Q 196 20 194 20 L 189 20 Z"/>
  </g>
</svg>
